<?xml version="1.0" encoding="UTF-8" standalone="no"?>
<svg
   viewBox="0 0 24 24"
   version="1.1"
   id="svg134"
   sodipodi:docname="logo.svg"
   inkscape:version="1.2 (dc2aeda, 2022-05-15)"
   xmlns:inkscape="http://www.inkscape.org/namespaces/inkscape"
   xmlns:sodipodi="http://sodipodi.sourceforge.net/DTD/sodipodi-0.dtd"
   xmlns="http://www.w3.org/2000/svg"
   xmlns:svg="http://www.w3.org/2000/svg">
  <defs
     id="defs138" />
  <sodipodi:namedview
     id="namedview136"
     pagecolor="#ffffff"
     bordercolor="#000000"
     borderopacity="0.25"
     inkscape:showpageshadow="2"
     inkscape:pageopacity="0.0"
     inkscape:pagecheckerboard="0"
     inkscape:deskcolor="#d1d1d1"
     showgrid="false"
     inkscape:zoom="42.79"
     inkscape:cx="2.18509"
     inkscape:cy="10.598271"
     inkscape:window-width="1390"
     inkscape:window-height="1205"
     inkscape:window-x="62"
     inkscape:window-y="25"
     inkscape:window-maximized="0"
     inkscape:current-layer="svg134" />
  <ellipse
     style="fill:#000000;stroke:#000000;stroke-width:1.994;stroke-opacity:1;stroke-dasharray:none;fill-opacity:1"
     id="path565"
     cx="12"
     cy="12"
     rx="10.904747"
     ry="10.992125" />
  <g
     aria-label="P"
     transform="matrix(0.93482049,0,0,0.79924569,1.3567637,2.8621012)"
     id="text1178"
     style="font-size:26.6667px;stroke:#000000;stroke-width:0;fill:#ffffff;fill-opacity:1">
    <path
       d="m 10.703633,13.340062 v 5.466673 q 0,0.613334 0.586667,0.880001 0.586667,0.240001 1.760002,0.400001 0.320001,0.05333 0.320001,0.453334 0,0.186667 -0.05333,0.453334 -0.773334,-0.05333 -1.760002,-0.106667 -0.986668,-0.02667 -2.1333361,-0.02667 -0.6933342,0 -1.5733353,0.02667 -0.8800011,0.05333 -1.6533354,0.106667 -0.053333,-0.266667 -0.053333,-0.426668 0,-0.373333 0.266667,-0.426667 1.066668,-0.213333 1.4133351,-0.4 0.3733338,-0.213334 0.3733338,-0.746668 V 5.4200517 q 0,-0.533334 -0.4266672,-0.7733343 Q 7.370295,4.4067171 6.303627,4.2733836 6.03696,4.2200502 6.03696,3.7933829 q 0,-0.1866669 0.053333,-0.4000005 0.7466676,0.053333 1.5733353,0.1066668 0.8533344,0.026667 1.600002,0.026667 h 3.7600047 q 2.880004,0 4.320006,1.3600018 1.440002,1.3600017 1.440002,3.5200044 0,0.8533344 -0.400001,1.7333356 -0.373334,0.880001 -1.120001,1.600002 -0.720001,0.693334 -1.813336,1.146668 -1.066668,0.453334 -2.42667,0.453334 z m 1.413335,-1.093335 q 1.866669,0 2.880003,-0.826668 1.013335,-0.826667 1.013335,-2.8000033 0,-0.8266677 -0.186667,-1.5466686 Q 15.636972,6.3533862 15.183638,5.8200522 14.730304,5.2600515 13.983637,4.9400511 13.236969,4.6200507 12.116968,4.6200507 h -1.413335 v 7.6266763 z"
       style="font-family:Athelas;-inkscape-font-specification:Athelas;fill:#ffffff;stroke:#ffffff;fill-opacity:1"
       id="path1536" />
  </g>
</svg>
